<svg width="18" height="18" viewBox="0 0 18 18" fill="none" xmlns="http://www.w3.org/2000/svg">
<path d="M7 5.08223C7 4.89949 6.81059 4.7796 6.65181 4.87007C5.21726 5.68749 4.25 7.23078 4.25 9C4.25 11.6234 6.37665 13.75 9 13.75C11.6234 13.75 13.75 11.6234 13.75 9C13.75 7.23078 12.7827 5.68749 11.3482 4.87007C11.1894 4.7796 11 4.89948 11 5.08223V6.31619C11 6.39312 11.0358 6.46532 11.0946 6.51493C11.8012 7.1111 12.25 8.00314 12.25 9C12.25 10.7949 10.7949 12.25 9 12.25C7.20507 12.25 5.75 10.7949 5.75 9C5.75 8.00314 6.19881 7.1111 6.90539 6.51493C6.96419 6.46532 7 6.39312 7 6.31619V5.08223Z" fill="black"/>
<path d="M9.75 4C9.75 3.58579 9.41421 3.25 9 3.25C8.58579 3.25 8.25 3.58579 8.25 4V9C8.25 9.41421 8.58579 9.75 9 9.75C9.41421 9.75 9.75 9.41421 9.75 9V4Z" fill="black"/>
<path fill-rule="evenodd" clip-rule="evenodd" d="M0.25 9C0.25 4.16751 4.16751 0.25 9 0.25C13.8325 0.25 17.75 4.16751 17.75 9C17.75 13.8325 13.8325 17.75 9 17.75C4.16751 17.75 0.25 13.8325 0.25 9ZM9 1.75C4.99594 1.75 1.75 4.99594 1.75 9C1.75 13.0041 4.99594 16.25 9 16.25C13.0041 16.25 16.25 13.0041 16.25 9C16.25 4.99594 13.0041 1.75 9 1.75Z" fill="black"/>
</svg>
