<svg width="18" height="15" viewBox="0 0 18 15" fill="none" xmlns="http://www.w3.org/2000/svg">
<path d="M9 4.75C9.41421 4.75 9.75 5.08579 9.75 5.5V7.25H11.5C11.9142 7.25 12.25 7.58579 12.25 8C12.25 8.41421 11.9142 8.75 11.5 8.75H9.75V10.5C9.75 10.9142 9.41421 11.25 9 11.25C8.58579 11.25 8.25 10.9142 8.25 10.5V8.75H6.5C6.08579 8.75 5.75 8.41421 5.75 8C5.75 7.58579 6.08579 7.25 6.5 7.25H8.25V5.5C8.25 5.08579 8.58579 4.75 9 4.75Z" fill="black"/>
<path fill-rule="evenodd" clip-rule="evenodd" d="M5.4 0.25C2.61914 0.25 0.25 2.3293 0.25 5.0298C0.25 6.87967 1.03888 8.50644 2.13182 9.88154C3.22287 11.2543 4.65005 12.4193 6.01653 13.366C6.53846 13.7276 7.06648 14.0611 7.54973 14.3072C8.00349 14.5383 8.52526 14.75 9 14.75C9.47474 14.75 9.99651 14.5383 10.4503 14.3072C10.9335 14.0611 11.4615 13.7276 11.9835 13.366C13.35 12.4193 14.7771 11.2543 15.8682 9.88154C16.9611 8.50644 17.75 6.87967 17.75 5.0298C17.75 2.3293 15.3809 0.25 12.6 0.25C11.1665 0.25 9.90516 0.922139 9 1.79183C8.09484 0.922139 6.83347 0.25 5.4 0.25ZM1.75 5.0298C1.75 3.2791 3.32075 1.75 5.4 1.75C6.59415 1.75 7.7092 2.46342 8.40544 3.36892C8.5474 3.55356 8.76709 3.66176 9 3.66176C9.23291 3.66176 9.4526 3.55356 9.59457 3.36892C10.2908 2.46342 11.4058 1.75 12.6 1.75C14.6792 1.75 16.25 3.2791 16.25 5.0298C16.25 6.43329 15.6542 7.74 14.6939 8.94822C13.7317 10.1588 12.4371 11.2269 11.1293 12.133C10.6344 12.4758 10.1683 12.7675 9.76955 12.9706C9.34135 13.1886 9.09334 13.25 9 13.25C8.90666 13.25 8.65865 13.1886 8.23045 12.9706C7.83174 12.7675 7.36562 12.4758 6.87074 12.133C5.56292 11.2269 4.26828 10.1588 3.30609 8.94822C2.34579 7.74 1.75 6.43329 1.75 5.0298Z" fill="black"/>
</svg>
