<svg width="20" height="20" viewBox="0 0 20 20" fill="none" xmlns="http://www.w3.org/2000/svg">
<path fill-rule="evenodd" clip-rule="evenodd" d="M6.92955 2.47027C5.65833 2.32819 4.34242 2.32819 3.0712 2.47027C2.76231 2.50479 2.51872 2.74938 2.48397 3.04644C2.33217 4.34438 2.33217 5.65559 2.48397 6.95353C2.51872 7.25059 2.76231 7.49518 3.0712 7.5297C4.34242 7.67178 5.65833 7.67178 6.92955 7.5297C7.23844 7.49518 7.48203 7.25059 7.51678 6.95353C7.66858 5.65559 7.66858 4.34438 7.51678 3.04644C7.48203 2.74938 7.23844 2.50479 6.92955 2.47027ZM2.90459 0.979548C4.28654 0.825095 5.71421 0.825095 7.09616 0.979548C8.087 1.09029 8.88944 1.87028 9.00662 2.87219C9.17197 4.2859 9.17197 5.71407 9.00662 7.12778C8.88944 8.12969 8.087 8.90968 7.09616 9.02042C5.71421 9.17487 4.28654 9.17487 2.90459 9.02042C1.91375 8.90968 1.11131 8.12969 0.994127 7.12778C0.828781 5.71407 0.828781 4.2859 0.994127 2.87219C1.11131 1.87028 1.91375 1.09029 2.90459 0.979548Z" fill="black"/>
<path fill-rule="evenodd" clip-rule="evenodd" d="M6.92955 12.4703C5.65833 12.3282 4.34242 12.3282 3.0712 12.4703C2.76231 12.5048 2.51872 12.7494 2.48397 13.0464C2.33217 14.3444 2.33217 15.6556 2.48397 16.9535C2.51872 17.2506 2.76231 17.4952 3.0712 17.5297C4.34242 17.6718 5.65833 17.6718 6.92955 17.5297C7.23844 17.4952 7.48203 17.2506 7.51678 16.9535C7.66858 15.6556 7.66858 14.3444 7.51678 13.0464C7.48203 12.7494 7.23844 12.5048 6.92955 12.4703ZM2.90459 10.9795C4.28654 10.8251 5.71421 10.8251 7.09616 10.9795C8.087 11.0903 8.88944 11.8703 9.00662 12.8722C9.17197 14.2859 9.17197 15.7141 9.00662 17.1278C8.88944 18.1297 8.087 18.9097 7.09616 19.0204C5.71421 19.1749 4.28654 19.1749 2.90459 19.0204C1.91375 18.9097 1.11131 18.1297 0.994127 17.1278C0.828781 15.7141 0.828781 14.2859 0.994127 12.8722C1.11131 11.8703 1.91375 11.0903 2.90459 10.9795Z" fill="black"/>
<path fill-rule="evenodd" clip-rule="evenodd" d="M16.9295 2.47027C15.6583 2.32819 14.3424 2.32819 13.0712 2.47027C12.7623 2.50479 12.5187 2.74938 12.484 3.04644C12.3322 4.34438 12.3322 5.65559 12.484 6.95353C12.5187 7.25059 12.7623 7.49518 13.0712 7.5297C14.3424 7.67178 15.6583 7.67178 16.9295 7.5297C17.2384 7.49518 17.482 7.25059 17.5168 6.95353C17.6686 5.65559 17.6686 4.34438 17.5168 3.04644C17.482 2.74938 17.2384 2.50479 16.9295 2.47027ZM12.9046 0.979548C14.2865 0.825095 15.7142 0.825095 17.0962 0.979548C18.087 1.09029 18.8894 1.87028 19.0066 2.87219C19.172 4.2859 19.172 5.71407 19.0066 7.12778C18.8894 8.12969 18.087 8.90968 17.0962 9.02042C15.7142 9.17487 14.2865 9.17487 12.9046 9.02042C11.9138 8.90968 11.1113 8.12969 10.9941 7.12778C10.8288 5.71407 10.8288 4.2859 10.9941 2.87219C11.1113 1.87028 11.9138 1.09029 12.9046 0.979548Z" fill="black"/>
<path fill-rule="evenodd" clip-rule="evenodd" d="M16.9295 12.4703C15.6583 12.3282 14.3424 12.3282 13.0712 12.4703C12.7623 12.5048 12.5187 12.7494 12.484 13.0464C12.3322 14.3444 12.3322 15.6556 12.484 16.9535C12.5187 17.2506 12.7623 17.4952 13.0712 17.5297C14.3424 17.6718 15.6583 17.6718 16.9295 17.5297C17.2384 17.4952 17.482 17.2506 17.5168 16.9535C17.6686 15.6556 17.6686 14.3444 17.5168 13.0464C17.482 12.7494 17.2384 12.5048 16.9295 12.4703ZM12.9046 10.9795C14.2865 10.8251 15.7142 10.8251 17.0962 10.9795C18.087 11.0903 18.8894 11.8703 19.0066 12.8722C19.172 14.2859 19.172 15.7141 19.0066 17.1278C18.8894 18.1297 18.087 18.9097 17.0962 19.0204C15.7142 19.1749 14.2865 19.1749 12.9046 19.0204C11.9138 18.9097 11.1113 18.1297 10.9941 17.1278C10.8288 15.7141 10.8288 14.2859 10.9941 12.8722C11.1113 11.8703 11.9138 11.0903 12.9046 10.9795Z" fill="black"/>
</svg>
