<svg width="21" height="18" viewBox="0 0 21 18" fill="none" xmlns="http://www.w3.org/2000/svg">
<path d="M13.5004 9C13.5004 8.17157 14.172 7.5 15.0004 7.5C15.8289 7.5 16.5004 8.17157 16.5004 9C16.5004 9.82843 15.8289 10.5 15.0004 10.5C14.172 10.5 13.5004 9.82843 13.5004 9Z" fill="black"/>
<path fill-rule="evenodd" clip-rule="evenodd" d="M18.4418 3.67402C17.784 2.12836 16.3306 1.01723 14.6011 0.835232L13.9492 0.766636C10.6569 0.420183 7.33617 0.443029 4.04893 0.83475L3.61699 0.886221C1.9482 1.08508 0.625946 2.38889 0.40367 4.05473C-0.0342962 7.33704 -0.0342962 10.663 0.40367 13.9453C0.625946 15.6111 1.9482 16.9149 3.61699 17.1138L4.04894 17.1653C7.33618 17.557 10.6569 17.5798 13.9492 17.2334L14.6011 17.1648C16.3306 16.9828 17.784 15.8717 18.4418 14.326C19.481 14.0166 20.2742 13.1156 20.4044 12.0024C20.6377 10.0076 20.6377 7.99242 20.4044 5.99764C20.2742 4.88442 19.481 3.98344 18.4418 3.67402ZM13.7923 2.2584C10.6112 1.92365 7.40261 1.94573 4.22642 2.32421L3.79448 2.37568C2.80567 2.49351 2.0222 3.26606 1.89049 4.25312C1.4701 7.40376 1.4701 10.5963 1.89049 13.7469C2.0222 14.734 2.80567 15.5065 3.79448 15.6243L4.22642 15.6758C7.40261 16.0543 10.6112 16.0764 13.7923 15.7416L14.4441 15.673C15.2947 15.5835 16.0472 15.1643 16.5688 14.542C15.0606 14.6299 13.5324 14.5906 12.0422 14.4241C10.7728 14.2822 9.74623 13.2826 9.59649 12.0024C9.36318 10.0076 9.36318 7.99242 9.59649 5.99764C9.74623 4.71738 10.7728 3.71784 12.0422 3.57597C13.5324 3.40942 15.0606 3.37012 16.5688 3.45806C16.0472 2.83574 15.2947 2.4165 14.4441 2.327L13.7923 2.2584ZM17.2778 5.01471C17.2784 5.01855 17.279 5.02239 17.2796 5.02623L17.2857 5.06511L17.4843 5.03426C17.5871 5.04444 17.6897 5.05524 17.7921 5.06669C18.3795 5.13234 18.8473 5.59648 18.9146 6.17189C19.1343 8.0509 19.1343 9.94912 18.9146 11.8281C18.8473 12.4035 18.3795 12.8677 17.7921 12.9333C17.6897 12.9448 17.5871 12.9556 17.4843 12.9658L17.2857 12.9349L17.2796 12.9738C17.279 12.9776 17.2784 12.9815 17.2778 12.9853C15.5992 13.1372 13.8776 13.1199 12.2088 12.9333C11.6214 12.8677 11.1536 12.4035 11.0863 11.8281C10.8666 9.94912 10.8666 8.0509 11.0863 6.17189C11.1536 5.59648 11.6214 5.13234 12.2088 5.06669C13.8776 4.88017 15.5992 4.86285 17.2778 5.01471Z" fill="black"/>
</svg>
