<svg width="320" height="15" viewBox="0 0 320 15" fill="none" xmlns="http://www.w3.org/2000/svg">
<path d="M163.054 6.2207V6.66992C163.054 7.20378 162.987 7.68229 162.854 8.10547C162.72 8.52865 162.528 8.88835 162.277 9.18457C162.027 9.48079 161.726 9.70703 161.374 9.86328C161.026 10.0195 160.635 10.0977 160.202 10.0977C159.782 10.0977 159.397 10.0195 159.045 9.86328C158.697 9.70703 158.394 9.48079 158.137 9.18457C157.883 8.88835 157.686 8.52865 157.546 8.10547C157.406 7.68229 157.336 7.20378 157.336 6.66992V6.2207C157.336 5.68685 157.404 5.20996 157.541 4.79004C157.681 4.36686 157.878 4.00716 158.132 3.71094C158.386 3.41146 158.687 3.18359 159.035 3.02734C159.387 2.87109 159.772 2.79297 160.192 2.79297C160.625 2.79297 161.016 2.87109 161.364 3.02734C161.716 3.18359 162.017 3.41146 162.268 3.71094C162.522 4.00716 162.715 4.36686 162.849 4.79004C162.985 5.20996 163.054 5.68685 163.054 6.2207ZM162.121 6.66992V6.21094C162.121 5.78776 162.077 5.41341 161.989 5.08789C161.905 4.76237 161.779 4.48893 161.613 4.26758C161.447 4.04622 161.244 3.87858 161.003 3.76465C160.765 3.65072 160.495 3.59375 160.192 3.59375C159.899 3.59375 159.634 3.65072 159.397 3.76465C159.162 3.87858 158.96 4.04622 158.791 4.26758C158.625 4.48893 158.496 4.76237 158.405 5.08789C158.314 5.41341 158.269 5.78776 158.269 6.21094V6.66992C158.269 7.09635 158.314 7.47396 158.405 7.80273C158.496 8.12826 158.627 8.40332 158.796 8.62793C158.968 8.84928 159.172 9.01693 159.406 9.13086C159.644 9.24479 159.909 9.30176 160.202 9.30176C160.508 9.30176 160.78 9.24479 161.018 9.13086C161.255 9.01693 161.455 8.84928 161.618 8.62793C161.784 8.40332 161.91 8.12826 161.994 7.80273C162.079 7.47396 162.121 7.09635 162.121 6.66992ZM159.709 2.40723L160.656 0.97168H161.745L160.437 2.40723H159.709Z" fill="#98A2AF"/>
<path d="M0 7.1286H146.878" stroke="#98A2AF"/>
<path d="M173.122 7.1286H320" stroke="#98A2AF"/>
</svg>
